# xmcd
#
# Track frame offsets: 
#        183
#        15995
#        65708
#        101808
#
# Disc length: 1505 seconds
#
# Revision: 0
# Processed by: cddbd v1.5.2PL0 Copyright (c) Steve Scherf et al.
# Submitted via: ExactAudioCopy v0.99pb5
#
DISCID=2d05df04
DTITLE=Young Disciples - Young Disciples EP
DYEAR=1992
DGENRE=Acid Jazz
TTITLE0=Move On (Album Mix)
TTITLE1=All I Have In Me (Original Musiquarium Mix)
TTITLE2=Freedom (Free For All Mix)
TTITLE3=Move On (Lynch Mob Beats Mix)
EXTD=
EXTT0=
EXTT1=
EXTT2=
EXTT3=
PLAYORDER=
